<svg width="51" height="33" viewBox="0 0 51 33" fill="none" xmlns="http://www.w3.org/2000/svg">
<path d="M48 0.541626H3C1.34315 0.541626 0 1.88477 0 3.54163V6.54163C0 8.19848 1.34315 9.54163 3 9.54163H48C49.6569 9.54163 51 8.19848 51 6.54163V3.54163C51 1.88477 49.6569 0.541626 48 0.541626Z" fill="#083061"/>
<path d="M48 12.5416H3C1.34315 12.5416 0 13.8848 0 15.5416V18.5416C0 20.1985 1.34315 21.5416 3 21.5416H48C49.6569 21.5416 51 20.1985 51 18.5416V15.5416C51 13.8848 49.6569 12.5416 48 12.5416Z" fill="#083061"/>
<path d="M48 23.5416H3C1.34315 23.5416 0 24.8848 0 26.5416V29.5416C0 31.1985 1.34315 32.5416 3 32.5416H48C49.6569 32.5416 51 31.1985 51 29.5416V26.5416C51 24.8848 49.6569 23.5416 48 23.5416Z" fill="#083061"/>
</svg>
